<svg width="92" height="123" viewBox="0 0 92 123" fill="none" xmlns="http://www.w3.org/2000/svg">
<g clip-path="url(#clip0_3_2)">
<path d="M38.2449 74.388C32.8524 72.3924 27.9431 69.2784 23.8396 65.2506C19.7362 61.2228 16.5313 56.3724 14.4356 51.018L9.1642 48.9094C8.98677 48.8376 8.79655 48.8028 8.60519 48.8071C8.41383 48.8114 8.22537 48.8548 8.05136 48.9345C7.87735 49.0142 7.72146 49.1287 7.59324 49.2708C7.46501 49.4129 7.36716 49.5797 7.30568 49.7609L4.44019 58.1952V58.2628C4.92897 65.8759 7.53896 73.2002 11.9748 79.4068C16.4106 85.6134 22.4951 90.4545 29.5397 93.3822C36.5843 96.3099 44.3078 97.2074 51.8361 95.9729C59.3643 94.7385 66.3967 91.4215 72.1375 86.3974L75.5166 78.1253C75.6385 77.8248 75.6534 77.4915 75.5586 77.1814C75.4639 76.8713 75.2653 76.6032 74.9962 76.4222L69.9411 73.0431C65.0161 75.375 59.6735 76.6955 54.2292 76.9265C48.785 77.1575 43.3497 76.2943 38.2449 74.388Z" fill="#FADC50" stroke="black" stroke-width="1.35165" stroke-miterlimit="10"/>
<path d="M60.6349 17.8418L60.8985 17.95L60.8242 17.6864L60.6349 17.8418Z" fill="#FADC50" stroke="black" stroke-width="1.35165" stroke-miterlimit="10"/>
<path d="M41.7119 65.0548C36.3187 63.0603 31.4089 59.9468 27.3053 55.9188C23.2016 51.8909 19.9972 47.0399 17.9026 41.6848L7.90717 48.8621V48.9297C8.4033 56.536 11.0169 63.852 15.4525 70.0509C19.8882 76.2499 25.9691 81.0848 33.0083 84.0093C40.0475 86.9338 47.7642 87.8313 55.2867 86.6004C62.8092 85.3696 69.8375 82.0594 75.5774 77.0439L73.3878 63.6559C68.4697 65.9952 63.1324 67.3243 57.6916 67.5646C52.2508 67.8049 46.8171 66.9515 41.7119 65.0548Z" fill="#F8F5D5" stroke="black" stroke-width="1.35165" stroke-miterlimit="10"/>
<path d="M64.1019 8.50183L64.3587 8.60996L64.3182 8.35315L64.1019 8.50183Z" fill="#FADC50" stroke="black" stroke-width="1.35165" stroke-miterlimit="10"/>
<path d="M41.7119 65.0548C46.8139 66.9588 52.246 67.8202 57.6867 67.588C63.1275 67.3558 68.4665 66.0348 73.3878 63.7031L64.3587 8.60996L64.1019 8.50183L17.9026 41.6848C19.9971 47.0399 23.2016 51.8909 27.3052 55.9188C31.4089 59.9467 36.3187 63.0603 41.7119 65.0548Z" fill="#FADC50" stroke="black" stroke-width="1.35165" stroke-miterlimit="10"/>
<path d="M50.849 18.1661C50.849 18.1661 48.9837 25.9584 57.8775 28.9793C66.7714 32.0002 67.6365 31.0879 67.6365 31.0879L64.1019 8.50183L50.849 18.1661Z" fill="#EE0000" stroke="black" stroke-width="1.35165" stroke-miterlimit="10"/>
<path d="M33.5209 30.2432C33.5209 30.2432 48.9499 40.59 30.1418 58.0263C25.0934 53.3767 20.9445 47.8372 17.9026 41.6849L33.5209 30.2432Z" fill="#EE0000" stroke="black" stroke-width="1.35165" stroke-miterlimit="10"/>
<path d="M50.876 67.258C50.876 67.258 50.1461 43.6042 69.6842 42.8878L73.3877 63.6762C73.3877 63.6762 58.9454 69.7383 50.876 67.258Z" fill="#EE0000" stroke="black" stroke-width="1.35165" stroke-miterlimit="10"/>
<path d="M33.1154 37.7785C33.1154 37.7785 38.7179 22.8496 46.0777 25.4312C54.1876 28.2765 46.936 43.4555 46.936 43.4555L33.1154 37.7785Z" fill="#F8F5D5" stroke="black" stroke-width="1.35165" stroke-miterlimit="10"/>
<path d="M37.5421 39.664C37.5421 39.664 42.043 27.8979 47.0577 29.5943C52.5859 31.4663 46.9157 43.4892 46.9157 43.4892L37.5421 39.664Z" fill="black" stroke="black" stroke-width="1.35165" stroke-miterlimit="10"/>
<path d="M40.2386 30.5134L43.6786 35.109L37.7719 35.2915L40.2386 30.5134Z" fill="#F8F5D5"/>
<path d="M52.6737 45.2058C52.6737 45.2058 55.8839 29.5875 63.5612 31.0135C72.0293 32.5341 67.2174 48.6593 67.2174 48.6593L52.6737 45.2058Z" fill="#F8F5D5" stroke="black" stroke-width="1.35165" stroke-miterlimit="10"/>
<path d="M57.3504 46.375C57.3504 46.375 59.9591 34.0548 65.1764 34.9468C70.9345 35.9335 67.2039 48.6999 67.2039 48.6999L57.3504 46.375Z" fill="black" stroke="black" stroke-width="1.35165" stroke-miterlimit="10"/>
<path d="M58.5872 36.9203L62.703 40.9212L56.8976 42.0295L58.5872 36.9203Z" fill="#F8F5D5"/>
<path d="M29.8512 40.1575C30.1331 41.4711 30.6855 42.7117 31.4731 43.8002C32.001 44.5862 32.732 45.2145 33.5885 45.6181C34.0203 45.8174 34.4966 45.901 34.9705 45.8607C35.4444 45.8205 35.8997 45.6577 36.2918 45.3884C36.6885 45.05 37.0048 44.6275 37.2177 44.1516C38.5693 41.4483 38.076 36.5959 35.5686 34.5279C31.9935 31.5948 29.2159 37.1703 29.8512 40.1575Z" fill="#EE0000"/>
<path d="M32.9937 33.1965C32.9937 33.1965 40.225 33.7913 37.8461 42.9216Z" fill="#EE0000"/>
<path d="M32.9937 33.1965C32.9937 33.1965 40.225 33.7913 37.8461 42.9216" stroke="black" stroke-width="1.35165" stroke-miterlimit="10" stroke-linecap="round"/>
<path d="M67.704 54.7418C66.5211 55.3772 65.2179 55.7571 63.8789 55.8569C62.9369 55.9651 61.9833 55.8131 61.1215 55.4176C60.6934 55.2161 60.3247 54.9074 60.0512 54.5213C59.7776 54.1353 59.6085 53.6851 59.5604 53.2144C59.5609 52.6947 59.6787 52.1819 59.905 51.7141C61.1148 48.9162 65.1089 46.1656 68.3055 46.74C72.8471 47.5443 70.3871 53.282 67.704 54.7418Z" fill="#EE0000"/>
<path d="M70.9615 47.8213C70.9615 47.8213 65.8523 42.6716 60.4052 50.4165Z" fill="#EE0000"/>
<path d="M70.9615 47.8213C70.9615 47.8213 65.8523 42.6716 60.4052 50.4165" stroke="black" stroke-width="1.35165" stroke-miterlimit="10" stroke-linecap="round"/>
<path d="M59.9403 56.5964C58.3927 60.7595 51.4858 62.0368 44.5586 59.4619C37.6314 56.887 33.2385 51.4196 34.7727 47.2633C36.3068 43.1069 41.5309 46.3779 48.4581 48.9596C55.3853 51.5412 61.4812 52.4401 59.9403 56.5964Z" fill="white" stroke="black" stroke-width="1.35165" stroke-miterlimit="10"/>
<path d="M9.12239 105.584C9.16051 105.613 9.27008 105.627 9.45111 105.627C9.63214 105.627 9.7703 105.556 9.86558 105.413C9.96086 105.27 10.0085 105.037 10.0085 104.713V103.626C10.0085 103.283 9.96562 103.04 9.87987 102.898C9.80364 102.745 9.67025 102.669 9.47969 102.669C9.29866 102.669 9.1748 102.688 9.1081 102.726C9.11763 102.774 9.12239 102.855 9.12239 102.969V105.584ZM9.47969 112.044V114.231C9.06046 114.584 8.46973 114.874 7.70749 115.103C6.94525 115.322 6.14967 115.432 5.32073 115.432C4.13926 115.432 3.17217 115.203 2.41946 114.746C1.56194 114.222 1.13319 113.464 1.13319 112.473V98.8958C1.13319 98.5909 1.33804 98.286 1.74774 97.9811C2.16697 97.6762 2.74341 97.3999 3.47707 97.1521C5.04918 96.6186 6.84521 96.3518 8.86514 96.3518C11.6568 96.3518 13.8816 97.0473 15.5395 98.4384C17.1974 99.8295 18.0263 101.702 18.0263 104.055C18.0263 106.399 17.2783 108.224 15.7824 109.529C14.3437 110.768 12.3476 111.387 9.79412 111.387C9.21291 111.387 8.58883 111.32 7.92187 111.187C7.26444 111.044 6.82139 110.92 6.59272 110.815C6.51649 110.891 6.47838 110.996 6.47838 111.13C6.47838 111.616 7.47882 111.921 9.47969 112.044ZM26.0584 102.312V107.971C26.0584 109.391 26.4014 110.315 27.0874 110.744C27.0969 110.791 27.1017 110.882 27.1017 111.015V111.273C27.1017 112.673 26.7206 113.726 25.9583 114.431C25.2533 115.098 24.31 115.432 23.1285 115.432C21.9566 115.432 20.9895 115.098 20.2273 114.431C19.2649 113.583 18.7838 112.345 18.7838 110.715V101.425C18.9553 101.302 19.1411 101.202 19.3411 101.125C19.5412 101.049 19.7509 100.954 19.97 100.839C19.5603 100.63 19.1887 100.268 18.8552 99.7533C18.5217 99.2292 18.355 98.6195 18.355 97.9239C18.355 96.7234 18.7504 95.742 19.5412 94.9798C20.3321 94.2175 21.2991 93.8364 22.4425 93.8364C23.5954 93.8364 24.5577 94.2271 25.3295 95.0084C26.1108 95.7801 26.5014 96.752 26.5014 97.9239C26.5014 98.8672 26.2061 99.6961 25.6153 100.411C25.0246 101.116 24.3052 101.559 23.4572 101.74C23.4572 102.102 23.5954 102.283 23.8717 102.283C24.3576 102.283 24.8531 102.092 25.3581 101.711C25.7392 102.007 25.9726 102.207 26.0584 102.312ZM35.2624 107.457V109.372C35.3291 109.438 35.4387 109.472 35.5911 109.472C35.7436 109.472 35.8531 109.419 35.9198 109.315C35.9865 109.21 36.0199 109.029 36.0199 108.772V107.314C36.0199 106.399 35.9818 105.794 35.9055 105.499C35.8293 105.194 35.6864 105.041 35.4768 105.041C35.3434 105.041 35.2291 105.089 35.1338 105.184C35.2195 106.128 35.2624 106.885 35.2624 107.457ZM30.7033 101.297C30.7033 101.583 30.87 101.726 31.2035 101.726C31.7752 100.83 32.4469 100.168 33.2186 99.739C33.9904 99.3007 34.9194 99.0816 36.0056 99.0816C37.0918 99.0816 38.0827 99.2531 38.9783 99.5961C40.2074 100.082 41.1793 100.863 41.8939 101.94C42.7895 103.302 43.2373 105.089 43.2373 107.299C43.2373 109.786 42.5704 111.72 41.2364 113.102C39.9121 114.474 38.0732 115.16 35.7197 115.16C34.4049 115.16 33.3806 114.998 32.647 114.674C32.5803 114.712 32.5469 114.793 32.5469 114.917C32.5469 115.203 32.7661 115.408 33.2044 115.532C33.6522 115.655 34.4192 115.746 35.5054 115.803V119.605C34.524 120.043 33.4473 120.262 32.2754 120.262C30.8938 120.262 29.8505 120.01 29.1454 119.505C28.3451 118.962 27.9449 118.128 27.9449 117.004V105.499C27.3828 104.708 27.1017 103.726 27.1017 102.555C27.1017 102.078 27.1779 101.559 27.3304 100.997C27.4828 100.435 27.6877 99.9534 27.9449 99.5532H29.9744C30.8033 99.5532 31.4369 99.6675 31.8752 99.8962C31.0939 100.477 30.7033 100.944 30.7033 101.297ZM51.6982 107.457V109.372C51.7649 109.438 51.8744 109.472 52.0269 109.472C52.1793 109.472 52.2889 109.419 52.3556 109.315C52.4223 109.21 52.4556 109.029 52.4556 108.772V107.314C52.4556 106.399 52.4175 105.794 52.3413 105.499C52.2651 105.194 52.1222 105.041 51.9125 105.041C51.7791 105.041 51.6648 105.089 51.5695 105.184C51.6553 106.128 51.6982 106.885 51.6982 107.457ZM47.139 101.297C47.139 101.583 47.3058 101.726 47.6392 101.726C48.2109 100.83 48.8826 100.168 49.6544 99.739C50.4262 99.3007 51.3552 99.0816 52.4413 99.0816C53.5275 99.0816 54.5184 99.2531 55.4141 99.5961C56.6432 100.082 57.615 100.863 58.3296 101.94C59.2253 103.302 59.6731 105.089 59.6731 107.299C59.6731 109.786 59.0061 111.72 57.6722 113.102C56.3478 114.474 54.5089 115.16 52.1555 115.16C50.8406 115.16 49.8164 114.998 49.0827 114.674C49.016 114.712 48.9827 114.793 48.9827 114.917C48.9827 115.203 49.2018 115.408 49.6401 115.532C50.0879 115.655 50.8549 115.746 51.9411 115.803V119.605C50.9597 120.043 49.8831 120.262 48.7111 120.262C47.3296 120.262 46.2863 120.01 45.5812 119.505C44.7808 118.962 44.3807 118.128 44.3807 117.004V105.499C43.8185 104.708 43.5374 103.726 43.5374 102.555C43.5374 102.078 43.6137 101.559 43.7661 100.997C43.9186 100.435 44.1234 99.9534 44.3807 99.5532H46.4101C47.2391 99.5532 47.8727 99.6675 48.311 99.8962C47.5297 100.477 47.139 100.944 47.139 101.297ZM67.9338 107.214V109.715C68.0005 109.781 68.1101 109.815 68.2625 109.815C68.415 109.815 68.5246 109.762 68.5913 109.658C68.658 109.553 68.6913 109.372 68.6913 109.115V107.071C68.6913 106.156 68.6532 105.551 68.577 105.256C68.5007 104.951 68.3578 104.798 68.1482 104.798C68.0148 104.798 67.9005 104.846 67.8052 104.941C67.891 105.885 67.9338 106.642 67.9338 107.214ZM62.5886 113.545C61.026 112.04 60.2448 110.001 60.2448 107.428C60.2448 104.846 60.9784 102.812 62.4457 101.325C63.9226 99.8295 65.8567 99.0816 68.2483 99.0816C70.6398 99.0816 72.574 99.8581 74.0508 101.411C75.5181 102.964 76.2518 104.989 76.2518 107.485C76.2518 109.972 75.5419 111.949 74.1223 113.416C72.7121 114.884 70.7922 115.617 68.3626 115.617C65.933 115.617 64.0083 114.927 62.5886 113.545ZM82.5116 106.814C82.0162 106.594 81.5779 106.485 81.1968 106.485C80.8157 106.485 80.6251 106.661 80.6251 107.014V107.071C81.7113 107.147 82.6307 107.585 83.3834 108.386C84.1362 109.176 84.5125 110.129 84.5125 111.244C84.5125 112.349 84.1076 113.307 83.2977 114.117C82.4783 114.917 81.5017 115.317 80.3678 115.317C79.234 115.317 78.2622 114.917 77.4523 114.117C76.6519 113.307 76.2518 112.34 76.2518 111.215C76.2518 110.453 76.4423 109.753 76.8234 109.115C77.2141 108.467 77.7286 107.957 78.367 107.585C77.7953 106.594 77.3379 105.456 76.9949 104.17C76.6519 102.883 76.4804 101.549 76.4804 100.168V95.5086C76.8806 95.2227 77.3999 94.9893 78.0383 94.8083C78.6766 94.6272 79.3245 94.5367 79.982 94.5367C81.4112 94.5367 82.4402 94.8988 83.069 95.6229C83.7074 96.3375 84.0266 97.5476 84.0266 99.2531V100.168C84.0266 102.369 83.5216 104.584 82.5116 106.814Z" fill="#DA0606"/>
<path d="M23.1334 27.9997C23.1571 27.9992 23.2046 27.9711 23.2757 27.9154C23.3469 27.8597 23.3792 27.789 23.3726 27.7036C23.3661 27.6181 23.313 27.5117 23.2132 27.3843L22.8789 26.9575C22.7733 26.8227 22.6817 26.7404 22.604 26.7106C22.5271 26.6742 22.4512 26.6853 22.3763 26.7439C22.3052 26.7997 22.2624 26.8453 22.2479 26.8808C22.2663 26.8966 22.2931 26.9269 22.3283 26.9719L23.1334 27.9997ZM25.2622 30.4285L25.9353 31.2878C25.8791 31.5554 25.7364 31.8514 25.5072 32.1759C25.2751 32.4967 24.9962 32.7846 24.6704 33.0398C24.2061 33.4035 23.7557 33.6113 23.3191 33.6632C22.8208 33.7212 22.4191 33.5555 22.1141 33.1661L17.9348 27.8303C17.841 27.7105 17.8276 27.5276 17.8948 27.2817C17.9657 27.0328 18.1072 26.7468 18.3192 26.4236C18.7728 25.73 19.3965 25.0723 20.1903 24.4505C21.2875 23.5912 22.3759 23.1798 23.4556 23.2161C24.5353 23.2525 25.4374 23.7331 26.1618 24.658C26.8833 25.5791 27.151 26.5264 26.9649 27.4998C26.7808 28.4295 26.187 29.2873 25.1834 30.0733C24.955 30.2522 24.6892 30.4181 24.3861 30.571C24.0837 30.7172 23.8715 30.8049 23.7493 30.8341C23.7429 30.8875 23.7601 30.9404 23.8012 30.9928C23.9508 31.1838 24.4378 30.9957 25.2622 30.4285ZM28.2329 20.0361L32.7773 25.8381C32.7224 26.1228 32.5904 26.4286 32.3812 26.7556C32.1721 27.0825 31.8616 27.4073 31.4497 27.7299C31.0378 28.0525 30.6159 28.235 30.1838 28.2773C29.7026 28.334 29.3198 28.1808 29.0353 27.8176L24.4909 22.0156C24.5458 21.7309 24.6778 21.4251 24.887 21.0981C25.0961 20.7712 25.4047 20.4479 25.8129 20.1282C26.221 19.8086 26.6453 19.6213 27.0856 19.5664C27.5689 19.5201 27.9514 19.6767 28.2329 20.0361ZM28.7886 20.063C28.5482 19.756 28.3901 19.4539 28.3144 19.1567C28.2395 18.8529 28.224 18.5901 28.2679 18.3684L33.4071 14.3431C33.6534 14.3798 33.9408 14.4961 34.2693 14.6919C34.5979 14.8876 34.9235 15.1915 35.2461 15.6034C35.425 15.8318 35.5409 16.0068 35.5939 16.1284C35.6477 16.2434 35.6879 16.3448 35.7144 16.4327C35.741 16.5207 35.7705 16.6123 35.803 16.7078C35.846 17.5803 35.789 18.5372 35.6319 19.5786C35.1036 20.0226 34.7359 20.3861 34.5287 20.6692C34.3223 20.9457 34.2602 21.1363 34.3423 21.2412C34.3775 21.2861 34.4299 21.3145 34.4997 21.3264C34.6215 21.104 34.8211 20.842 35.0983 20.5403C35.3763 20.2319 35.6651 19.9604 35.9647 19.7257L37.2284 18.7359C37.8283 18.985 38.2837 19.308 38.5946 19.7049C38.9055 20.1018 39.055 20.474 39.0433 20.8216C39.0315 21.1691 38.921 21.4792 38.7117 21.7519C38.5618 21.9539 38.3445 22.1664 38.0599 22.3893L33.9429 25.6139C33.2368 25.5145 32.5464 25.0342 31.8719 24.173C31.7223 23.982 31.6017 23.7895 31.5101 23.5954C31.5325 22.9375 31.5802 22.1963 31.6533 21.3717C31.7265 20.5472 31.813 19.7937 31.9128 19.1113C31.8333 19.0407 31.7505 19.0391 31.6644 19.1065C31.612 19.1476 31.5687 19.2389 31.5346 19.3804C31.5004 19.5219 31.4689 19.7671 31.4401 20.116L30.2325 21.0618C29.6219 20.8453 29.1406 20.5124 28.7886 20.063ZM35.3489 14.9247C35.1084 14.6177 34.9503 14.3156 34.8746 14.0184C34.7998 13.7145 34.7843 13.4518 34.8281 13.2301L39.9674 9.20479C40.2136 9.24149 40.501 9.35773 40.8296 9.55351C41.1581 9.74929 41.4837 10.0531 41.8063 10.465C41.9852 10.6934 42.1011 10.8684 42.1541 10.9901C42.2079 11.105 42.2481 11.2065 42.2747 11.2944C42.3013 11.3823 42.3308 11.474 42.3632 11.5694C42.4062 12.442 42.3492 13.3989 42.1921 14.4402C41.6639 14.8842 41.2961 15.2478 41.0889 15.5309C40.8825 15.8073 40.8204 15.998 40.9025 16.1028C40.9377 16.1478 40.9902 16.1762 41.0599 16.188C41.1818 15.9657 41.3813 15.7037 41.6585 15.4019C41.9366 15.0935 42.2254 14.822 42.5249 14.5874L43.7887 13.5976C44.3885 13.8467 44.8439 14.1697 45.1548 14.5666C45.4657 14.9635 45.6153 15.3357 45.6035 15.6832C45.5918 16.0308 45.4812 16.3409 45.2719 16.6136C45.122 16.8156 44.9048 17.028 44.6202 17.2509L40.5032 20.4756C39.797 20.3762 39.1067 19.8959 38.4321 19.0347C38.2825 18.8437 38.1619 18.6512 38.0703 18.4571C38.0927 17.7992 38.1405 17.0579 38.2136 16.2334C38.2867 15.4088 38.3732 14.6554 38.4731 13.973C38.3936 13.9023 38.3108 13.9007 38.2246 13.9682C38.1722 14.0092 38.1289 14.1005 38.0948 14.2421C38.0606 14.3836 38.0292 14.6288 38.0003 14.9776L36.7927 15.9235C36.1821 15.707 35.7008 15.374 35.3489 14.9247ZM47.1555 9.3111C47.209 9.31759 47.2675 9.29591 47.3311 9.24605C47.3948 9.19619 47.4388 9.14056 47.4632 9.07915C46.9201 8.58626 46.5906 8.30058 46.4748 8.22213C46.3485 8.14581 46.2442 8.1399 46.1619 8.20443C46.1244 8.23375 46.0883 8.28018 46.0535 8.34371L47.1555 9.3111ZM47.3632 11.8671C47.3668 11.9489 47.3862 12.0122 47.4214 12.0572C47.5065 12.1658 47.6794 12.1783 47.9403 12.0948C48.202 12.0047 48.4862 11.8546 48.7929 11.6445C49.2639 12.1456 49.5568 12.4116 49.6716 12.4425C49.709 12.6367 49.6224 12.9311 49.4118 13.3256C49.1983 13.7164 48.8894 14.0702 48.485 14.3869C47.9495 14.8063 47.4014 15.0514 46.8405 15.1221C46.2768 15.1891 45.8527 15.041 45.5682 14.6778C45.4919 14.5804 45.4338 14.487 45.3939 14.3974L42.4021 8.11335C42.5521 7.68776 42.7924 7.2579 43.123 6.82376C43.4536 6.38963 43.8435 5.99659 44.2928 5.64465C44.9369 5.1402 45.5724 4.81766 46.1993 4.67703C46.9133 4.5165 47.5098 4.62627 47.9888 5.00634L53.4179 9.29979C53.4244 10.1103 52.9877 10.8602 52.1077 11.5494C51.6808 11.8837 51.2594 12.09 50.8433 12.1682C50.4273 12.2463 50.0835 12.1622 49.8119 11.9158L49.1516 11.3273C49.3733 11.1476 49.5568 10.9344 49.702 10.6878C49.8471 10.4412 49.8845 10.2729 49.8141 10.1831C49.7672 10.1232 49.7047 10.0936 49.6267 10.0942C49.5636 10.3068 49.4496 10.5199 49.2847 10.7337C49.1199 10.9474 48.9494 11.1232 48.7734 11.261C48.2679 11.6569 47.7979 11.859 47.3632 11.8671Z" fill="#DA0606"/>
<path d="M77.3616 88.6681C77.3616 88.8911 77.3616 89.1074 77.3616 89.3439C77.3616 89.1141 77.3616 88.8911 77.3616 88.6681Z" fill="white" stroke="black" stroke-width="1.35165" stroke-miterlimit="10"/>
<path d="M90.3037 73.7459C90.3252 73.7459 90.3458 73.7374 90.361 73.7222C90.3762 73.7069 90.3848 73.6863 90.3848 73.6648C90.3848 73.6433 90.3762 73.6227 90.361 73.6075C90.3458 73.5922 90.3252 73.5837 90.3037 73.5837C86.7303 72.867 83.5154 70.935 81.2053 68.1161C78.8953 65.2972 77.6326 61.7654 77.632 58.1208C77.6313 61.7654 76.3686 65.2972 74.0586 68.1161C71.7485 70.935 68.5336 72.867 64.9602 73.5837C64.9387 73.5837 64.9181 73.5922 64.9029 73.6075C64.8877 73.6227 64.8792 73.6433 64.8792 73.6648C64.8792 73.6863 64.8877 73.7069 64.9029 73.7222C64.9181 73.7374 64.9387 73.7459 64.9602 73.7459C68.4217 74.4388 71.5505 76.2733 73.8456 78.9555C76.1407 81.6378 77.4692 85.0127 77.6184 88.5397C77.769 85.0089 79.1015 81.6311 81.4018 78.9484C83.7022 76.2656 86.8372 74.4334 90.3037 73.7459Z" fill="#F8F5D5" stroke="black" stroke-width="1.35165" stroke-miterlimit="10"/>
<path d="M12.0162 30.5675C12.0162 30.7229 12.0162 30.8784 12.0162 31.0338" stroke="black" stroke-width="1.35165" stroke-miterlimit="10"/>
<path d="M20.8492 20.2747C20.8611 20.2706 20.8715 20.2628 20.8788 20.2525C20.8861 20.2422 20.89 20.2299 20.89 20.2173C20.89 20.2047 20.8861 20.1923 20.8788 20.1821C20.8715 20.1718 20.8611 20.164 20.8492 20.1598C18.3594 19.6614 16.1193 18.3156 14.5101 16.3515C12.9009 14.3874 12.022 11.9264 12.0229 9.38721C12.0223 11.9252 11.1427 14.3846 9.53359 16.3474C7.9245 18.3101 5.68527 19.6549 3.19666 20.1531C3.18473 20.1572 3.17439 20.165 3.16707 20.1753C3.15975 20.1856 3.15582 20.1979 3.15582 20.2105C3.15582 20.2232 3.15975 20.2355 3.16707 20.2458C3.17439 20.2561 3.18473 20.2638 3.19666 20.268C5.60066 20.7576 7.77167 22.0377 9.36386 23.9042C10.956 25.7707 11.8778 28.1164 11.9824 30.5675C12.0902 28.1055 13.0234 25.7515 14.6319 23.8844C16.2403 22.0173 18.4303 20.7458 20.8492 20.2747Z" fill="#F8F5D5" stroke="black" stroke-width="1.35165" stroke-miterlimit="10"/>
</g>
<defs>
<clipPath id="clip0_3_2">
<rect width="91.2363" height="123" fill="white"/>
</clipPath>
</defs>
</svg>
