<svg width="83" height="85" viewBox="0 0 83 85" fill="none" xmlns="http://www.w3.org/2000/svg">
<g clip-path="url(#clip0_1_383)">
<path d="M34.7837 59.6559C29.8792 57.8409 25.4143 55.0087 21.6821 51.3454C17.95 47.6822 15.0352 43.2707 13.1292 38.4009L8.33482 36.4831C8.17345 36.4178 8.00044 36.3862 7.8264 36.3901C7.65236 36.394 7.48096 36.4335 7.3227 36.506C7.16444 36.5785 7.02265 36.6825 6.90603 36.8118C6.78941 36.941 6.70041 37.0927 6.6445 37.2576L4.03833 44.9286V44.99C4.48288 51.9142 6.85666 58.5756 10.891 64.2205C14.9254 69.8654 20.4593 74.2684 26.8663 76.9312C33.2734 79.5939 40.2979 80.4101 47.1449 79.2874C53.9918 78.1647 60.3878 75.1479 65.609 70.5784L68.6823 63.055C68.7932 62.7817 68.8067 62.4786 68.7205 62.1965C68.6344 61.9145 68.4538 61.6706 68.209 61.506L63.6114 58.4327C59.1321 60.5536 54.273 61.7546 49.3215 61.9647C44.3699 62.1748 39.4265 61.3897 34.7837 59.6559Z" fill="#F5E1BD" stroke="#290303" stroke-width="2" stroke-miterlimit="10"/>
<path d="M55.1475 8.22707L55.3872 8.32541L55.3196 8.08569L55.1475 8.22707Z" fill="#E3B243" stroke="#290303" stroke-width="2" stroke-miterlimit="10"/>
<path d="M37.9369 51.1674C33.0319 49.3534 28.5664 46.5216 24.8341 42.8582C21.1018 39.1948 18.1874 34.7828 16.2824 29.9124L7.19153 36.4401V36.5015C7.64276 43.4195 10.0198 50.0734 14.054 55.7113C18.0883 61.3493 23.6189 65.7466 30.021 68.4065C36.4231 71.0663 43.4415 71.8826 50.2832 70.7631C57.1249 69.6436 63.5171 66.633 68.7376 62.0715L66.7461 49.895C62.2731 52.0226 57.4188 53.2315 52.4704 53.45C47.522 53.6685 42.5801 52.8924 37.9369 51.1674Z" fill="#F8F5D5" stroke="#290303" stroke-width="2" stroke-miterlimit="10"/>
<path d="M58.3007 -0.267606L58.5343 -0.16926L58.4974 -0.402832L58.3007 -0.267606Z" fill="#E3B243" stroke="#290303" stroke-width="2" stroke-miterlimit="10"/>
<path d="M37.937 51.1673C42.5773 52.899 47.5177 53.6824 52.4661 53.4713C57.4145 53.2601 62.2702 52.0587 66.7462 49.938L58.5343 -0.169232L58.3007 -0.267578L16.2824 29.9123C18.1874 34.7828 21.1019 39.1948 24.8341 42.8582C28.5664 46.5216 33.0319 49.3534 37.937 51.1673Z" fill="#FFE15F" stroke="#290303" stroke-width="2" stroke-miterlimit="10"/>
<path d="M46.2472 8.52209C46.2472 8.52209 44.5507 15.6091 52.6397 18.3567C60.7286 21.1042 61.5154 20.2744 61.5154 20.2744L58.3007 -0.267578L46.2472 8.52209Z" fill="#FF0000" stroke="#290303" stroke-width="2" stroke-miterlimit="10"/>
<path d="M30.4872 19.5061C30.4872 19.5061 44.52 28.9166 27.4139 44.7749C22.8225 40.5461 19.049 35.5079 16.2824 29.9123L30.4872 19.5061Z" fill="#FF0000" stroke="#290303" stroke-width="2" stroke-miterlimit="10"/>
<path d="M46.2718 53.1712C46.2718 53.1712 45.6079 31.658 63.3778 31.0065L66.7462 49.9135C66.7462 49.9135 53.6108 55.427 46.2718 53.1712Z" fill="#FF0000" stroke="#290303" stroke-width="2" stroke-miterlimit="10"/>
<path d="M30.1185 26.3597C30.1185 26.3597 35.214 12.7818 41.9077 15.1298C49.2836 17.7175 42.6883 31.5228 42.6883 31.5228L30.1185 26.3597Z" fill="#F5E1BD" stroke="#290303" stroke-width="2" stroke-miterlimit="10"/>
<path d="M34.1445 28.0745C34.1445 28.0745 38.2381 17.3732 42.7989 18.916C47.8268 20.6186 42.6698 31.5535 42.6698 31.5535L34.1445 28.0745Z" fill="#290303" stroke="#290303" stroke-width="2" stroke-miterlimit="10"/>
<path d="M36.597 19.752L39.7256 23.9317L34.3535 24.0976L36.597 19.752Z" fill="#F5E1BD"/>
<path d="M47.9067 33.1148C47.9067 33.1148 50.8264 18.9099 57.8089 20.2069C65.5107 21.5899 61.1343 36.2557 61.1343 36.2557L47.9067 33.1148Z" fill="#F5E1BD" stroke="#290303" stroke-width="2" stroke-miterlimit="10"/>
<path d="M52.1602 34.1782C52.1602 34.1782 54.5328 22.9729 59.278 23.7842C64.5149 24.6816 61.122 36.2926 61.122 36.2926L52.1602 34.1782Z" fill="#290303" stroke="#290303" stroke-width="2" stroke-miterlimit="10"/>
<path d="M53.2851 25.579L57.0284 29.2178L51.7484 30.2258L53.2851 25.579Z" fill="#F5E1BD"/>
<path d="M27.1496 28.5232C27.4061 29.7179 27.9085 30.8462 28.6248 31.8362C29.1049 32.5511 29.7698 33.1225 30.5487 33.4896C30.9415 33.6709 31.3747 33.7469 31.8057 33.7103C32.2367 33.6736 32.6508 33.5256 33.0074 33.2807C33.3682 32.973 33.6559 32.5887 33.8495 32.1558C35.0788 29.6972 34.6301 25.2839 32.3497 23.403C29.0981 20.7354 26.5719 25.8064 27.1496 28.5232Z" fill="#FF0000"/>
<path d="M30.0078 22.1923C30.0078 22.1923 36.5847 22.7332 34.4211 31.0372Z" fill="#FF0000"/>
<path d="M30.0078 22.1923C30.0078 22.1923 36.5847 22.7332 34.4211 31.0372" stroke="#290303" stroke-width="2" stroke-miterlimit="10" stroke-linecap="round"/>
<path d="M61.5768 41.7877C60.501 42.3656 59.3157 42.7111 58.0979 42.8019C57.2411 42.9002 56.3738 42.7621 55.59 42.4023C55.2007 42.2191 54.8653 41.9383 54.6166 41.5872C54.3678 41.2361 54.214 40.8266 54.1702 40.3985C54.1707 39.9259 54.2778 39.4594 54.4836 39.034C55.5839 36.4893 59.2165 33.9876 62.1239 34.5101C66.2544 35.2415 64.0171 40.46 61.5768 41.7877Z" fill="#FF0000"/>
<path d="M64.5395 35.4935C64.5395 35.4935 59.8927 30.8097 54.9385 37.8538Z" fill="#FF0000"/>
<path d="M64.5395 35.4935C64.5395 35.4935 59.8927 30.8097 54.9385 37.8538" stroke="#290303" stroke-width="2" stroke-miterlimit="10" stroke-linecap="round"/>
<path d="M54.4038 43.2505C52.9962 47.0368 46.7143 48.1985 40.414 45.8567C34.1138 43.5148 30.1184 38.5422 31.5137 34.762C32.909 30.9818 37.6604 33.9568 43.9606 36.3048C50.2609 38.6528 55.8052 39.4703 54.4038 43.2505Z" fill="white" stroke="#290303" stroke-width="2" stroke-miterlimit="10"/>
<path d="M70.3604 72.6437C70.3604 72.8465 70.3604 73.0432 70.3604 73.2583C70.3604 73.0494 70.3604 72.8465 70.3604 72.6437Z" fill="white" stroke="#290303" stroke-width="2" stroke-miterlimit="10"/>
<path d="M81.8976 59.1888C81.9171 59.1888 81.9359 59.181 81.9497 59.1672C81.9636 59.1533 81.9713 59.1346 81.9713 59.115C81.9713 59.0954 81.9636 59.0767 81.9497 59.0629C81.9359 59.049 81.9171 59.0413 81.8976 59.0413C78.6476 58.3894 75.7236 56.6322 73.6226 54.0685C71.5217 51.5047 70.3733 48.2925 70.3727 44.9778C70.3721 48.2925 69.2237 51.5047 67.1227 54.0685C65.0217 56.6322 62.0977 58.3894 58.8477 59.0413C58.8282 59.0413 58.8094 59.049 58.7956 59.0629C58.7818 59.0767 58.774 59.0954 58.774 59.115C58.774 59.1346 58.7818 59.1533 58.7956 59.1672C58.8094 59.181 58.8282 59.1888 58.8477 59.1888C61.996 59.8189 64.8416 61.4874 66.929 63.9269C69.0163 66.3665 70.2246 69.4359 70.3604 72.6437C70.4973 69.4325 71.7092 66.3604 73.8014 63.9204C75.8936 61.4804 78.7448 59.8141 81.8976 59.1888Z" fill="white" stroke="#290303" stroke-width="2" stroke-miterlimit="10"/>
<path d="M10.9287 19.8011C10.9287 19.9425 10.9287 20.0839 10.9287 20.2253" stroke="#290303" stroke-width="2" stroke-miterlimit="10"/>
<path d="M18.9623 10.4398C18.9732 10.436 18.9826 10.429 18.9893 10.4196C18.9959 10.4102 18.9995 10.399 18.9995 10.3876C18.9995 10.3761 18.9959 10.3649 18.9893 10.3555C18.9826 10.3461 18.9732 10.3391 18.9623 10.3353C16.6979 9.88196 14.6606 8.65797 13.197 6.87162C11.7334 5.08527 10.934 2.84696 10.9349 0.537598C10.9343 2.8459 10.1343 5.08277 8.67082 6.86785C7.20735 8.65293 5.17077 9.87602 2.90738 10.3292C2.89653 10.3329 2.88712 10.34 2.88047 10.3494C2.87381 10.3587 2.87024 10.3699 2.87024 10.3814C2.87024 10.3929 2.87381 10.4041 2.88047 10.4135C2.88712 10.4228 2.89653 10.4299 2.90738 10.4337C5.09382 10.879 7.06835 12.0432 8.51645 13.7408C9.96454 15.4384 10.8029 17.5718 10.898 19.8011C10.996 17.5619 11.8448 15.4209 13.3077 13.7228C14.7706 12.0246 16.7623 10.8683 18.9623 10.4398Z" fill="white" stroke="#290303" stroke-width="2" stroke-miterlimit="10"/>
</g>
<defs>
<clipPath id="clip0_1_383">
<rect width="83" height="85" fill="white"/>
</clipPath>
</defs>
</svg>
