<svg width="29" height="36" viewBox="0 0 29 36" fill="none" xmlns="http://www.w3.org/2000/svg">
<g clip-path="url(#clip0_3_54)">
<path d="M20.4542 8.7051C20.1635 8.70248 19.8645 8.70051 19.5573 8.6992C18.8039 -2.11501 8.91049 -1.46327 7.87416 8.86885C7.5613 8.87802 7.25953 8.88523 6.97014 8.89309C8.00712 -2.59841 19.6975 -3.25997 20.4542 8.7051Z" fill="#290303"/>
<path d="M28.5056 35.723C27.8239 35.5992 0.456249 36.4042 0.0462794 35.723C-0.0156397 29.4192 2.20954 9.11386 3.24652 8.99858C6.32944 8.96517 21.9526 8.29313 25.0329 8.99858C25.8887 9.85206 28.7292 29.4932 28.5056 35.723Z" fill="#DA0606"/>
<path d="M28.5056 35.723C27.8239 35.5992 0.456245 36.4042 0.0462748 35.723C-0.0423674 35.5756 0.000650145 34.2269 0.134917 32.2075C7.94064 34.7928 23.2288 35.1282 28.4965 32.8691C28.6262 34.6442 28.6464 35.7485 28.5056 35.723Z" fill="#AA0404"/>
<path d="M24.2156 12.1072C23.1949 12.7759 3.24652 12.7759 3.24652 12.1072C3.24652 11.4384 5.35699 11.105 5.01871 10.4362C4.78929 9.98623 4.06581 9.3548 3.61804 8.98996C9.65417 8.88189 18.6585 8.40766 24.7012 8.9035C24.0716 9.30437 22.8149 10.1657 23.3324 10.3694C24.0116 10.6367 25.2369 11.439 24.2156 12.1072Z" fill="#AA0404"/>
<path d="M20.5044 15.2133L19.6186 15.151C20.3936 0.135597 7.4303 1.12204 7.63496 15.1792L6.74984 15.1844C6.47022 -0.177497 21.4859 -0.851503 20.5044 15.2133Z" fill="#290303"/>
<path d="M20.4385 24.0827C20.5858 32.7616 8.32193 31.65 8.19549 24.0827C8.24633 16.6372 20.7058 15.0763 20.4385 24.0827Z" fill="#FADC50"/>
</g>
<defs>
<clipPath id="clip0_3_54">
<rect width="28.6027" height="36" fill="white"/>
</clipPath>
</defs>
</svg>
